<svg width="15" height="15" viewBox="0 0 23 22" fill="none" xmlns="http://www.w3.org/2000/svg">
<path d="M11.5136 0C5.15638 0 0 5.05032 0 11.2075C0 16.1195 3.24923 20.4088 7.98179 21.9308C8.1937 22 8.4056 21.9308 8.61751 21.8616L8.75878 21.7925H8.82942C9.60641 21.5849 10.1715 20.8239 10.1715 20.0629V13.0755H7.69925C6.92226 13.0755 6.35718 12.4528 6.35718 11.761C6.35718 11.0692 6.9929 10.4465 7.69925 10.4465H15.3279C16.1049 10.4465 16.6699 11.0692 16.6699 11.761C16.6699 12.4528 16.0342 13.0755 15.3279 13.0755H12.9263V20.0629C12.9263 20.8931 13.4913 21.6541 14.2683 21.9308H14.339C14.4802 22 14.6215 22 14.7628 22C14.8334 22 14.9041 22 14.9747 22C21.0493 20.1321 24.3692 13.7673 22.462 7.88679C20.9081 3.18239 16.5287 0.0691824 11.5136 0ZM3.46113 13.0063C2.68414 13.0063 2.11906 12.3836 2.11906 11.6918C2.11906 11 2.75478 10.3774 3.46113 10.3774C4.23812 10.3774 4.8032 11 4.8032 11.6918C4.8032 12.3836 4.23812 13.0063 3.46113 13.0063ZM11.5136 8.09434C10.0302 8.09434 8.82942 6.91824 8.82942 5.46541C8.82942 4.01258 10.0302 2.83648 11.5136 2.83648C12.9969 2.83648 14.1977 4.01258 14.1977 5.46541C14.1977 6.91824 12.9969 8.09434 11.5136 8.09434ZM19.6366 13.0755C18.8596 13.0755 18.2945 12.4528 18.2945 11.761C18.2945 11.0692 18.9303 10.4465 19.6366 10.4465C20.343 10.4465 20.9787 11.0692 20.9787 11.761C20.9787 12.4528 20.4136 13.0063 19.6366 13.0755Z" fill="url(#paint0_linear)"/>
<defs>
<linearGradient id="paint0_linear" x1="11.5" y1="0" x2="11.5" y2="22" gradientUnits="userSpaceOnUse">
<stop stop-color="#F29FFF"/>
<stop offset="1" stop-color="#878CFF"/>
</linearGradient>
</defs>
</svg>
