<svg width="26" height="14" viewBox="0 0 26 14" fill="none" xmlns="http://www.w3.org/2000/svg">
<g clip-path="url(#clip0)">
<path d="M23.5061 0.197266H2.49316V13.8093H23.5061V0.197266Z" fill="#002173"/>
<path d="M25.9976 12.1771L0.938965 0.00244141L-0.000733658 1.82863L25.0579 14.0033L25.9976 12.1771Z" fill="white"/>
<path d="M0.468506 0.91373L0.155273 1.52246L12.6846 7.60977L12.9978 7.00104L0.468506 0.91373Z" fill="#C61018"/>
<path d="M13.3127 6.39029L12.9995 6.99902L25.5288 13.0863L25.842 12.4776L13.3127 6.39029Z" fill="#C61018"/>
<path d="M25.0601 0.00237924L0.00146484 12.177L0.941163 14.0032L25.9998 1.82857L25.0601 0.00237924Z" fill="white"/>
<path d="M13.001 7.00302L0.47168 13.0903L0.784913 13.6991L13.3142 7.61175L13.001 7.00302Z" fill="#C61018"/>
<path d="M25.2158 0.306732L12.6865 6.39404L12.9998 7.00277L25.5291 0.915463L25.2158 0.306732Z" fill="#C61018"/>
<path d="M25.2573 5.30179H14.7508V0.197266H11.2487V5.30179H0.742188V8.7048H11.2487V13.8093H14.7508V8.7048H25.2573V5.30179Z" fill="white"/>
<path d="M25.2573 5.98239H14.0504V0.197266H11.9491V5.98239H0.742188V8.0242H11.9491V13.8093H14.0504V8.0242H25.2573V5.98239Z" fill="#C61018"/>
</g>
<defs>
<clipPath id="clip0">
<rect width="26" height="14" fill="white"/>
</clipPath>
</defs>
</svg>
