<svg width="23" height="23" viewBox="0 0 23 23" fill="none" xmlns="http://www.w3.org/2000/svg">
<g style="mix-blend-mode:multiply">
<path d="M11.5136 0C5.15638 0 0 5.27988 0 11.717C0 16.8522 3.24923 21.3365 7.98179 22.9277C8.1937 23 8.4056 22.9277 8.61751 22.8553L8.75878 22.783H8.82942C9.60641 22.566 10.1715 21.7704 10.1715 20.9748V13.6698H7.69925C6.92226 13.6698 6.35718 13.0189 6.35718 12.2956C6.35718 11.5723 6.9929 10.9214 7.69925 10.9214H15.3279C16.1049 10.9214 16.6699 11.5723 16.6699 12.2956C16.6699 13.0189 16.0342 13.6698 15.3279 13.6698H12.9263V20.9748C12.9263 21.8428 13.4913 22.6384 14.2683 22.9277H14.339C14.4802 23 14.6215 23 14.7628 23C14.8334 23 14.9041 23 14.9747 23C21.0493 21.0472 24.3692 14.3931 22.462 8.24528C20.9081 3.32704 16.5287 0.072327 11.5136 0ZM3.46113 13.5975C2.68414 13.5975 2.11906 12.9465 2.11906 12.2233C2.11906 11.5 2.75478 10.8491 3.46113 10.8491C4.23812 10.8491 4.8032 11.5 4.8032 12.2233C4.8032 12.9465 4.23812 13.5975 3.46113 13.5975ZM11.5136 8.46226C10.0302 8.46226 8.82942 7.2327 8.82942 5.71384C8.82942 4.19497 10.0302 2.96541 11.5136 2.96541C12.9969 2.96541 14.1977 4.19497 14.1977 5.71384C14.1977 7.2327 12.9969 8.46226 11.5136 8.46226ZM19.6366 13.6698C18.8596 13.6698 18.2945 13.0189 18.2945 12.2956C18.2945 11.5723 18.9303 10.9214 19.6366 10.9214C20.343 10.9214 20.9787 11.5723 20.9787 12.2956C20.9787 13.0189 20.4136 13.5975 19.6366 13.6698Z" fill="#05043E"/>
</g>
</svg>