<svg width="84" height="72" viewBox="0 0 84 72" fill="none" xmlns="http://www.w3.org/2000/svg">
<path d="M18 0.0378418C16.9 0.0378418 15.9 0.437817 15.1 1.13782C14.3 1.83782 14 2.93784 14 4.03784V12.0378H8C7.5 12.0378 7 12.5378 7 13.0378V30.0378C4.9 30.0378 2.9 30.0378 0.8 30.0378C0.3 30.1378 0 30.5378 0 31.0378V51.0378C0 51.5378 0.5 52.0378 1 52.0378H26C32.1 52.0378 37 47.1378 37 41.0378C37 34.9378 32.1 30.0378 26 30.0378H9V14.0378H76C78 14.0378 79.7 13.2378 81 11.9378V36.0378C81 36.5378 81.5 37.0378 82 37.0378C82.5 37.0378 83 36.5378 83 36.0378C83 26.3378 83 16.5378 83 6.83783C82.9 3.03783 79.8 0.0378418 76 0.0378418H18ZM18 2.03784H76C78.7 2.03784 80.9 4.13783 81 6.83783C81 6.93783 81 6.93784 81 7.03784C81 9.83784 78.8 12.0378 76 12.0378H16V4.03784C16 3.33784 16.2 2.83784 16.5 2.53784C16.8 2.23784 17.3 2.03784 18 2.03784ZM2 32.0378H26C31 32.0378 35 36.0378 35 41.0378C35 46.0378 31 50.0378 26 50.0378H2V32.0378ZM27 39.0378C25.9 39.0378 25 39.9378 25 41.0378C25 42.1378 25.9 43.0378 27 43.0378C28.1 43.0378 29 42.1378 29 41.0378C29 39.9378 28.1 39.0378 27 39.0378ZM70 44.0378C62.3 44.0378 56 50.3378 56 58.0378C56 65.7378 62.3 72.0378 70 72.0378C77.7 72.0378 84 65.7378 84 58.0378C84 50.3378 77.7 44.0378 70 44.0378ZM70 46.0378C76.6 46.0378 82 51.4378 82 58.0378C82 64.6378 76.6 70.0378 70 70.0378C63.4 70.0378 58 64.6378 58 58.0378C58 51.4378 63.4 46.0378 70 46.0378ZM75.7 53.6378C76.5 53.7378 76.9 54.8378 76.3 55.3378L69 62.3378C68.6 62.7378 67.8 62.7378 67.4 62.2378L64.3 58.2378C64 57.8378 64.1 57.1378 64.5 56.8378C64.9 56.5378 65.6 56.6378 66 57.0378L68.4 60.1378L74.8 53.9378C75 53.7378 75.4 53.6378 75.7 53.6378ZM7.9 55.9378C7.4 56.0378 7 56.4378 7 56.9378V68.9378C7 69.4378 7.5 69.9378 8 69.9378H54C54.5 69.9378 55 69.4378 55 68.9378C55 68.4378 54.5 67.9378 54 67.9378H9V56.9378C9 56.4378 8.4 55.9378 7.9 55.9378Z" fill="url(#paint0_linear)"/>
<defs>
<linearGradient id="paint0_linear" x1="42" y1="0.0378418" x2="42" y2="72.0378" gradientUnits="userSpaceOnUse">
<stop stop-color="#F29FFF"/>
<stop offset="1" stop-color="#878CFF"/>
</linearGradient>
</defs>
</svg>
