<?xml version="1.0" encoding="utf-8"?>
<svg width="500" height="799" viewBox="0 0 500 799" fill="none" xmlns="http://www.w3.org/2000/svg">
  <g filter="url(#filter0_d_3123:45199)">
    <mask id="mask0_3123:45199" style="mask-type:alpha" maskUnits="userSpaceOnUse" x="16" y="15" width="468" height="772">
      <rect x="16.1147" y="15.9731" width="467.349" height="770.734" rx="19.4751" fill="#F2F2F2" />
    </mask>
    <g mask="url(#mask0_3123:45199)">
      <rect x="-272.499" y="-40.5518" width="1144.81" height="854.352" fill="white" />
    </g>
  </g>
  <path d="M297.444 352.556V447.444H202.556V352.556H297.444ZM297.444 339H202.556C195.1 339 189 345.1 189 352.556V447.444C189 454.9 195.1 461 202.556 461H297.444C304.9 461 311 454.9 311 447.444V352.556C311 345.1 304.9 339 297.444 339ZM264.504 399.051L244.171 425.281L229.667 407.727L209.333 433.889H290.667L264.504 399.051Z" fill="#E5E5E5" />
  <defs>
    <filter id="filter0_d_3123:45199" x="-11.7068" y="-11.8484" width="522.992" height="826.377" filterUnits="userSpaceOnUse" color-interpolation-filters="sRGB">
      <feFlood flood-opacity="0" result="BackgroundImageFix" />
      <feColorMatrix in="SourceAlpha" type="matrix" values="0 0 0 0 0 0 0 0 0 0 0 0 0 0 0 0 0 0 127 0" result="hardAlpha" />
      <feOffset />
      <feGaussianBlur stdDeviation="13.9108" />
      <feColorMatrix type="matrix" values="0 0 0 0 0 0 0 0 0 0 0 0 0 0 0 0 0 0 0.25 0" />
      <feBlend mode="normal" in2="BackgroundImageFix" result="effect1_dropShadow_3123:45199" />
      <feBlend mode="normal" in="SourceGraphic" in2="effect1_dropShadow_3123:45199" result="shape" />
    </filter>
  </defs>
</svg>
